<?xml version="1.0" encoding="UTF-8"?>
<svg version="1.1" xmlns="http://www.w3.org/2000/svg" width="860" height="793">
<path d="M0 0 C1.04623504 0.00092179 2.09247007 0.00184359 3.1704092 0.00279331 C4.36659374 0.00141865 5.56277828 0.00004398 6.79521084 -0.00137234 C8.13279653 0.00216726 9.47038198 0.00580208 10.80796719 0.00952244 C12.20711166 0.00980431 13.60625627 0.00964658 15.00540066 0.00907993 C18.81515014 0.00879195 22.62486841 0.01468885 26.43461061 0.02165389 C30.41179863 0.02788724 34.38898731 0.02849121 38.36617947 0.0296793 C45.90267094 0.03279267 53.43914798 0.04100614 60.97563308 0.05102879 C69.55348383 0.06218974 78.13133525 0.06770033 86.70919144 0.07272422 C104.35923267 0.08318875 122.00925409 0.1015343 139.65928555 0.12304783 C139.65928555 15.96304783 139.65928555 31.80304783 139.65928555 48.12304783 C155.49928555 48.12304783 171.33928555 48.12304783 187.65928555 48.12304783 C187.65928555 63.63304783 187.65928555 79.14304783 187.65928555 95.12304783 C218.34928555 95.12304783 249.03928555 95.12304783 280.65928555 95.12304783 C280.65928555 79.61304783 280.65928555 64.10304783 280.65928555 48.12304783 C296.49928555 48.12304783 312.33928555 48.12304783 328.65928555 48.12304783 C328.65928555 32.28304783 328.65928555 16.44304783 328.65928555 0.12304783 C375.84928555 0.12304783 423.03928555 0.12304783 471.65928555 0.12304783 C471.65928555 15.96304783 471.65928555 31.80304783 471.65928555 48.12304783 C487.16928555 48.12304783 502.67928555 48.12304783 518.65928555 48.12304783 C518.65928555 63.63304783 518.65928555 79.14304783 518.65928555 95.12304783 C534.49928555 95.12304783 550.33928555 95.12304783 566.65928555 95.12304783 C566.65928555 110.63304783 566.65928555 126.14304783 566.65928555 142.12304783 C582.16928555 142.12304783 597.67928555 142.12304783 613.65928555 142.12304783 C613.65928555 205.15304783 613.65928555 268.18304783 613.65928555 333.12304783 C598.14928555 333.12304783 582.63928555 333.12304783 566.65928555 333.12304783 C566.65928555 364.47304783 566.65928555 395.82304783 566.65928555 428.12304783 C550.81928555 428.12304783 534.97928555 428.12304783 518.65928555 428.12304783 C518.65928555 443.63304783 518.65928555 459.14304783 518.65928555 475.12304783 C503.14928555 475.12304783 487.63928555 475.12304783 471.65928555 475.12304783 C471.65928555 490.96304783 471.65928555 506.80304783 471.65928555 523.12304783 C456.14928555 523.12304783 440.63928555 523.12304783 424.65928555 523.12304783 C424.65928555 538.63304783 424.65928555 554.14304783 424.65928555 570.12304783 C408.81928555 570.12304783 392.97928555 570.12304783 376.65928555 570.12304783 C376.65928555 585.63304783 376.65928555 601.14304783 376.65928555 617.12304783 C361.14928555 617.12304783 345.63928555 617.12304783 329.65928555 617.12304783 C329.65928555 632.96304783 329.65928555 648.80304783 329.65928555 665.12304783 C314.14928555 665.12304783 298.63928555 665.12304783 282.65928555 665.12304783 C282.65928555 680.63304783 282.65928555 696.14304783 282.65928555 712.12304783 C250.97928555 712.12304783 219.29928555 712.12304783 186.65928555 712.12304783 C186.65928555 696.61304783 186.65928555 681.10304783 186.65928555 665.12304783 C170.81928555 665.12304783 154.97928555 665.12304783 138.65928555 665.12304783 C138.65928555 649.28304783 138.65928555 633.44304783 138.65928555 617.12304783 C123.14928555 617.12304783 107.63928555 617.12304783 91.65928555 617.12304783 C91.65928555 601.61304783 91.65928555 586.10304783 91.65928555 570.12304783 C76.14928555 570.12304783 60.63928555 570.12304783 44.65928555 570.12304783 C44.65928555 554.28304783 44.65928555 538.44304783 44.65928555 522.12304783 C28.81928555 522.12304783 12.97928555 522.12304783 -3.34071445 522.12304783 C-3.34071445 506.61304783 -3.34071445 491.10304783 -3.34071445 475.12304783 C-18.85071445 475.12304783 -34.36071445 475.12304783 -50.34071445 475.12304783 C-50.34071445 459.61304783 -50.34071445 444.10304783 -50.34071445 428.12304783 C-66.18071445 428.12304783 -82.02071445 428.12304783 -98.34071445 428.12304783 C-98.34071445 396.77304783 -98.34071445 365.42304783 -98.34071445 333.12304783 C-113.85071445 333.12304783 -129.36071445 333.12304783 -145.34071445 333.12304783 C-145.36325901 308.36739456 -145.38169218 283.61174955 -145.39252663 258.85608864 C-145.39769021 247.36247039 -145.40473409 235.86885897 -145.41615391 224.37524509 C-145.42609885 214.36129595 -145.43256743 204.34735175 -145.43480295 194.33339781 C-145.43611038 189.0275934 -145.43919827 183.72180312 -145.44644451 178.41600323 C-145.45320174 173.42814012 -145.45533203 168.44029702 -145.45382214 163.45242977 C-145.4540986 161.61614594 -145.45610548 159.77986147 -145.45991993 157.94358158 C-145.46485254 155.44784167 -145.46371436 152.95217858 -145.46096897 150.45643711 C-145.46388181 149.72006978 -145.46679465 148.98370244 -145.46979576 148.22502095 C-145.45483567 143.23716904 -145.45483567 143.23716904 -144.34071445 142.12304783 C-142.89781659 142.03008967 -141.45041661 142.0055827 -140.00453281 142.00952244 C-138.60382542 142.00970371 -138.60382542 142.00970371 -137.1748209 142.00988865 C-136.18671421 142.01500462 -135.19860752 142.02012058 -134.1805582 142.02539158 C-132.82565281 142.0269022 -132.82565281 142.0269022 -131.44337559 142.02844334 C-128.05497571 142.03369271 -124.66659387 142.04765384 -121.27821445 142.06054783 C-113.70883945 142.08117283 -106.13946445 142.10179783 -98.34071445 142.12304783 C-98.34071445 126.61304783 -98.34071445 111.10304783 -98.34071445 95.12304783 C-82.50071445 95.12304783 -66.66071445 95.12304783 -50.34071445 95.12304783 C-50.34071445 79.61304783 -50.34071445 64.10304783 -50.34071445 48.12304783 C-34.83071445 48.12304783 -19.32071445 48.12304783 -3.34071445 48.12304783 C-3.38032235 32.70030097 -3.38032235 32.70030097 -3.43080235 17.27758884 C-3.43372136 15.35237782 -3.43626995 13.42716617 -3.4383707 11.50195408 C-3.44348667 10.49225559 -3.44860264 9.48255711 -3.45387363 8.4422617 C-3.45405491 7.0111002 -3.45405491 7.0111002 -3.45423985 5.55102634 C-3.45646046 4.718297 -3.45868107 3.88556767 -3.46096897 3.0276041 C-3.28052764 0.16982645 -2.86254673 0.15047976 0 0 Z " fill="#FC0000" transform="translate(196.34071445465088,40.876952171325684)"/>
<path d="M0 0 C47.19 0 94.38 0 143 0 C143 15.84 143 31.68 143 48 C158.51 48 174.02 48 190 48 C190 63.51 190 79.02 190 95 C205.84 95 221.68 95 238 95 C238 110.51 238 126.02 238 142 C253.51 142 269.02 142 285 142 C285 205.03 285 268.06 285 333 C269.49 333 253.98 333 238 333 C238 364.35 238 395.7 238 428 C222.16 428 206.32 428 190 428 C190 443.51 190 459.02 190 475 C174.49 475 158.98 475 143 475 C143 490.84 143 506.68 143 523 C127.49 523 111.98 523 96 523 C96 538.51 96 554.02 96 570 C80.16 570 64.32 570 48 570 C48 585.51 48 601.02 48 617 C32.49 617 16.98 617 1 617 C1 632.84 1 648.68 1 665 C-14.51 665 -30.02 665 -46 665 C-46 680.51 -46 696.02 -46 712 C-77.68 712 -109.36 712 -142 712 C-142 696.16 -142 680.32 -142 664 C-157.51 664 -173.02 664 -189 664 C-189 648.49 -189 632.98 -189 617 C-173.16 617 -157.32 617 -141 617 C-141 632.18 -141 647.36 -141 663 C-125.82 663 -110.64 663 -95 663 C-95 647.82 -95 632.64 -95 617 C-63.65 617 -32.3 617 0 617 C0 601.16 0 585.32 0 569 C15.84 569 31.68 569 48 569 C48 522.14 48 475.28 48 427 C63.51 427 79.02 427 95 427 C95 395.65 95 364.3 95 332 C141.86 332 188.72 332 237 332 C237 269.63 237 207.26 237 143 C221.49 143 205.98 143 190 143 C190 127.49 190 111.98 190 96 C174.16 96 158.32 96 142 96 C142 80.16 142 64.32 142 48 C95.47 48 48.94 48 1 48 C1 63.84 1 79.68 1 96 C-14.84 96 -30.68 96 -47 96 C-47 111.51 -47 127.02 -47 143 C-78.35 143 -109.7 143 -142 143 C-142 127.49 -142 111.98 -142 96 C-157.51 96 -173.02 96 -189 96 C-189 80.16 -189 64.32 -189 48 C-173.16 48 -157.32 48 -141 48 C-141 63.51 -141 79.02 -141 95 C-110.31 95 -79.62 95 -48 95 C-48 79.49 -48 63.98 -48 48 C-32.16 48 -16.32 48 0 48 C0 32.16 0 16.32 0 0 Z " fill="#131111" transform="translate(525,41)"/>
<path d="M0 0 C31.35 0 62.7 0 95 0 C95 31.35 95 62.7 95 95 C79.16 95 63.32 95 47 95 C47 110.51 47 126.02 47 142 C62.84 142 78.68 142 95 142 C95 142.33 95 142.66 95 143 C79.49 143 63.98 143 48 143 C48 158.84 48 174.68 48 191 C32.49 191 16.98 191 1 191 C1 206.51 1 222.02 1 238 C-14.84 238 -30.68 238 -47 238 C-47 253.51 -47 269.02 -47 285 C-62.51 285 -78.02 285 -94 285 C-94 300.84 -94 316.68 -94 333 C-109.51 333 -125.02 333 -141 333 C-141 348.51 -141 364.02 -141 380 C-172.68 380 -204.36 380 -237 380 C-237 364.16 -237 348.32 -237 332 C-252.51 332 -268.02 332 -284 332 C-284 316.49 -284 300.98 -284 285 C-268.16 285 -252.32 285 -236 285 C-236 300.18 -236 315.36 -236 331 C-220.82 331 -205.64 331 -190 331 C-190 315.82 -190 300.64 -190 285 C-158.65 285 -127.3 285 -95 285 C-95 269.16 -95 253.32 -95 237 C-79.16 237 -63.32 237 -47 237 C-47 190.14 -47 143.28 -47 95 C-31.49 95 -15.98 95 0 95 C0 63.65 0 32.3 0 0 Z " fill="#E90000" transform="translate(620,373)"/>
<path d="M0 0 C1.04623504 0.00092179 2.09247007 0.00184359 3.1704092 0.00279331 C4.96093637 0.00072707 4.96093637 0.00072707 6.7876358 -0.00138092 C8.1277465 0.00216634 9.46785695 0.00580424 10.80796719 0.00952244 C12.22983675 0.00982855 13.65170647 0.00969566 15.07357597 0.00915718 C18.89405674 0.00893068 22.71450641 0.01474205 26.53497982 0.02176762 C30.11511239 0.02744697 33.69523726 0.02772989 37.27537441 0.02844334 C47.7575156 0.0336984 58.23965096 0.04765944 68.72178555 0.06054783 C92.13116055 0.08117283 115.54053555 0.10179783 139.65928555 0.12304783 C139.65928555 47.31304783 139.65928555 94.50304783 139.65928555 143.12304783 C108.30928555 143.12304783 76.95928555 143.12304783 44.65928555 143.12304783 C44.65928555 158.63304783 44.65928555 174.14304783 44.65928555 190.12304783 C29.14928555 190.12304783 13.63928555 190.12304783 -2.34071445 190.12304783 C-2.34071445 205.96304783 -2.34071445 221.80304783 -2.34071445 238.12304783 C-18.18071445 238.12304783 -34.02071445 238.12304783 -50.34071445 238.12304783 C-50.34071445 206.77304783 -50.34071445 175.42304783 -50.34071445 143.12304783 C-34.50071445 143.12304783 -18.66071445 143.12304783 -2.34071445 143.12304783 C-2.34071445 112.10304783 -2.34071445 81.08304783 -2.34071445 49.12304783 C-17.85071445 49.12304783 -33.36071445 49.12304783 -49.34071445 49.12304783 C-49.34071445 64.63304783 -49.34071445 80.14304783 -49.34071445 96.12304783 C-65.18071445 96.12304783 -81.02071445 96.12304783 -97.34071445 96.12304783 C-97.34071445 111.63304783 -97.34071445 127.14304783 -97.34071445 143.12304783 C-112.85071445 143.12304783 -128.36071445 143.12304783 -144.34071445 143.12304783 C-144.34071445 142.79304783 -144.34071445 142.46304783 -144.34071445 142.12304783 C-129.16071445 142.12304783 -113.98071445 142.12304783 -98.34071445 142.12304783 C-98.34071445 126.61304783 -98.34071445 111.10304783 -98.34071445 95.12304783 C-82.50071445 95.12304783 -66.66071445 95.12304783 -50.34071445 95.12304783 C-50.34071445 79.61304783 -50.34071445 64.10304783 -50.34071445 48.12304783 C-34.83071445 48.12304783 -19.32071445 48.12304783 -3.34071445 48.12304783 C-3.38032235 32.70030097 -3.38032235 32.70030097 -3.43080235 17.27758884 C-3.43372136 15.35237782 -3.43626995 13.42716617 -3.4383707 11.50195408 C-3.44348667 10.49225559 -3.44860264 9.48255711 -3.45387363 8.4422617 C-3.45405491 7.0111002 -3.45405491 7.0111002 -3.45423985 5.55102634 C-3.45646046 4.718297 -3.45868107 3.88556767 -3.46096897 3.0276041 C-3.28052764 0.16982645 -2.86254673 0.15047976 0 0 Z " fill="#FA0707" transform="translate(196.34071445465088,40.876952171325684)"/>
<path d="M0 0 C15.84 0 31.68 0 48 0 C48 15.84 48 31.68 48 48 C32.49 48 16.98 48 1 48 C1 63.84 1 79.68 1 96 C-14.51 96 -30.02 96 -46 96 C-46 111.51 -46 127.02 -46 143 C-77.68 143 -109.36 143 -142 143 C-142 127.16 -142 111.32 -142 95 C-157.51 95 -173.02 95 -189 95 C-189 79.49 -189 63.98 -189 48 C-173.16 48 -157.32 48 -141 48 C-141 63.18 -141 78.36 -141 94 C-125.82 94 -110.64 94 -95 94 C-95 78.82 -95 63.64 -95 48 C-63.65 48 -32.3 48 0 48 C0 32.16 0 16.32 0 0 Z " fill="#171515" transform="translate(525,610)"/>
<path d="M0 0 C15.51 0 31.02 0 47 0 C47 15.84 47 31.68 47 48 C62.51 48 78.02 48 94 48 C94 63.51 94 79.02 94 95 C78.49 95 62.98 95 47 95 C47 110.51 47 126.02 47 142 C31.49 142 15.98 142 0 142 C0 95.14 0 48.28 0 0 Z " fill="#E80000" transform="translate(573,468)"/>
<path d="M0 0 C15.51 0 31.02 0 47 0 C47 62.37 47 124.74 47 189 C31.49 189 15.98 189 0 189 C0 126.63 0 64.26 0 0 Z " fill="#000000" transform="translate(762,184)"/>
<path d="M0 0 C15.51 0 31.02 0 47 0 C47 62.37 47 124.74 47 189 C31.49 189 15.98 189 0 189 C0 126.63 0 64.26 0 0 Z " fill="#C40000" transform="translate(715,184)"/>
<path d="M0 0 C15.51 0 31.02 0 47 0 C47 62.37 47 124.74 47 189 C31.49 189 15.98 189 0 189 C0 126.63 0 64.26 0 0 Z " fill="#000000" transform="translate(52,184)"/>
<path d="M0 0 C46.86 0 93.72 0 142 0 C142 15.84 142 31.68 142 48 C95.14 48 48.28 48 0 48 C0 32.16 0 16.32 0 0 Z " fill="#040404" transform="translate(194,41)"/>
<path d="M0 0 C31.35 0 62.7 0 95 0 C95 15.51 95 31.02 95 47 C79.49 47 63.98 47 48 47 C48 62.84 48 78.68 48 95 C32.16 95 16.32 95 0 95 C0 63.65 0 32.3 0 0 Z " fill="#FF5151" transform="translate(146,184)"/>
<path d="M0 0 C15.51 0 31.02 0 47 0 C47 31.02 47 62.04 47 94 C15.65 94 -15.7 94 -48 94 C-48 78.49 -48 62.98 -48 47 C-32.16 47 -16.32 47 0 47 C0 31.49 0 15.98 0 0 Z " fill="#FD0000" transform="translate(147,90)"/>
<path d="M0 0 C15.84 0 31.68 0 48 0 C48 31.35 48 62.7 48 95 C32.16 95 16.32 95 0 95 C0 63.65 0 32.3 0 0 Z " fill="#C40000" transform="translate(667,373)"/>
<path d="M0 0 C15.84 0 31.68 0 48 0 C48 15.18 48 30.36 48 46 C63.18 46 78.36 46 94 46 C94 30.82 94 15.64 94 0 C109.84 0 125.68 0 142 0 C142 15.51 142 31.02 142 47 C95.14 47 48.28 47 0 47 C0 31.49 0 15.98 0 0 Z " fill="#C40000" transform="translate(336,658)"/>
<path d="M0 0 C31.35 0 62.7 0 95 0 C95 15.51 95 31.02 95 47 C63.65 47 32.3 47 0 47 C0 31.49 0 15.98 0 0 Z " fill="#010000" transform="translate(383,705)"/>
<path d="M0 0 C15.51 0 31.02 0 47 0 C47 31.35 47 62.7 47 95 C31.49 95 15.98 95 0 95 C0 63.65 0 32.3 0 0 Z " fill="#000000" transform="translate(715,373)"/>
<path d="M0 0 C31.35 0 62.7 0 95 0 C95 15.51 95 31.02 95 47 C63.65 47 32.3 47 0 47 C0 31.49 0 15.98 0 0 Z " fill="#010000" transform="translate(383,137)"/>
<path d="M0 0 C15.51 0 31.02 0 47 0 C47 31.02 47 62.04 47 94 C31.49 94 15.98 94 0 94 C0 62.98 0 31.96 0 0 Z " fill="#000000" transform="translate(99,374)"/>
<path d="M0 0 C15.51 0 31.02 0 47 0 C47 15.51 47 31.02 47 47 C62.84 47 78.68 47 95 47 C95 47.33 95 47.66 95 48 C79.49 48 63.98 48 48 48 C48 63.84 48 79.68 48 96 C32.49 96 16.98 96 1 96 C1 111.51 1 127.02 1 143 C-14.84 143 -30.68 143 -47 143 C-47 142.67 -47 142.34 -47 142 C-31.49 142 -15.98 142 0 142 C0 126.49 0 110.98 0 95 C15.51 95 31.02 95 47 95 C47 79.49 47 63.98 47 48 C31.49 48 15.98 48 0 48 C0 32.16 0 16.32 0 0 Z " fill="#C21111" transform="translate(620,468)"/>
<path d="M0 0 C15.84 0 31.68 0 48 0 C48 15.84 48 31.68 48 48 C32.16 48 16.32 48 0 48 C0 32.16 0 16.32 0 0 Z " fill="#FFCCCC" transform="translate(146,231)"/>
<path d="M0 0 C15.51 0 31.02 0 47 0 C47 15.84 47 31.68 47 48 C31.49 48 15.98 48 0 48 C0 32.16 0 16.32 0 0 Z " fill="#C30000" transform="translate(478,610)"/>
<path d="M0 0 C15.84 0 31.68 0 48 0 C48 15.51 48 31.02 48 47 C32.16 47 16.32 47 0 47 C0 31.49 0 15.98 0 0 Z " fill="#C30000" transform="translate(525,563)"/>
<path d="M0 0 C15.84 0 31.68 0 48 0 C48 15.51 48 31.02 48 47 C32.16 47 16.32 47 0 47 C0 31.49 0 15.98 0 0 Z " fill="#030000" transform="translate(667,468)"/>
<path d="M0 0 C15.84 0 31.68 0 48 0 C48 15.51 48 31.02 48 47 C32.16 47 16.32 47 0 47 C0 31.49 0 15.98 0 0 Z " fill="#FF5050" transform="translate(146,279)"/>
<path d="M0 0 C15.84 0 31.68 0 48 0 C48 15.51 48 31.02 48 47 C32.16 47 16.32 47 0 47 C0 31.49 0 15.98 0 0 Z " fill="#FFCECE" transform="translate(241,137)"/>
<path d="M0 0 C15.51 0 31.02 0 47 0 C47 15.84 47 31.68 47 48 C31.49 48 15.98 48 0 48 C0 32.16 0 16.32 0 0 Z " fill="#030101" transform="translate(336,89)"/>
<path d="M0 0 C15.51 0 31.02 0 47 0 C47 15.51 47 31.02 47 47 C31.49 47 15.98 47 0 47 C0 31.49 0 15.98 0 0 Z " fill="#000000" transform="translate(478,658)"/>
<path d="M0 0 C15.51 0 31.02 0 47 0 C47 15.51 47 31.02 47 47 C31.49 47 15.98 47 0 47 C0 31.49 0 15.98 0 0 Z " fill="#000000" transform="translate(336,658)"/>
<path d="M0 0 C15.51 0 31.02 0 47 0 C47 15.51 47 31.02 47 47 C31.49 47 15.98 47 0 47 C0 31.49 0 15.98 0 0 Z " fill="#000000" transform="translate(573,563)"/>
<path d="M0 0 C15.51 0 31.02 0 47 0 C47 15.51 47 31.02 47 47 C31.49 47 15.98 47 0 47 C0 31.49 0 15.98 0 0 Z " fill="#000000" transform="translate(241,563)"/>
<path d="M0 0 C15.51 0 31.02 0 47 0 C47 15.51 47 31.02 47 47 C31.49 47 15.98 47 0 47 C0 31.49 0 15.98 0 0 Z " fill="#010000" transform="translate(620,516)"/>
<path d="M0 0 C15.51 0 31.02 0 47 0 C47 15.51 47 31.02 47 47 C31.49 47 15.98 47 0 47 C0 31.49 0 15.98 0 0 Z " fill="#C40000" transform="translate(573,516)"/>
<path d="M0 0 C15.51 0 31.02 0 47 0 C47 15.51 47 31.02 47 47 C31.49 47 15.98 47 0 47 C0 31.49 0 15.98 0 0 Z " fill="#000000" transform="translate(194,516)"/>
<path d="M0 0 C15.51 0 31.02 0 47 0 C47 15.51 47 31.02 47 47 C31.49 47 15.98 47 0 47 C0 31.49 0 15.98 0 0 Z " fill="#020000" transform="translate(147,468)"/>
<path d="M0 0 C15.51 0 31.02 0 47 0 C47 15.51 47 31.02 47 47 C31.49 47 15.98 47 0 47 C0 31.49 0 15.98 0 0 Z " fill="#FFD0D0" transform="translate(194,184)"/>
<path d="M0 0 C15.51 0 31.02 0 47 0 C47 15.51 47 31.02 47 47 C31.49 47 15.98 47 0 47 C0 31.49 0 15.98 0 0 Z " fill="#000000" transform="translate(715,137)"/>
<path d="M0 0 C15.51 0 31.02 0 47 0 C47 15.51 47 31.02 47 47 C31.49 47 15.98 47 0 47 C0 31.49 0 15.98 0 0 Z " fill="#FF5050" transform="translate(289,137)"/>
<path d="M0 0 C15.51 0 31.02 0 47 0 C47 15.51 47 31.02 47 47 C31.49 47 15.98 47 0 47 C0 31.49 0 15.98 0 0 Z " fill="#FF5151" transform="translate(194,137)"/>
<path d="M0 0 C15.51 0 31.02 0 47 0 C47 15.51 47 31.02 47 47 C31.49 47 15.98 47 0 47 C0 31.49 0 15.98 0 0 Z " fill="#000000" transform="translate(99,137)"/>
<path d="M0 0 C15.51 0 31.02 0 47 0 C47 15.51 47 31.02 47 47 C31.49 47 15.98 47 0 47 C0 31.49 0 15.98 0 0 Z " fill="#030000" transform="translate(147,90)"/>
<path d="M0 0 C15.51 0 31.02 0 47 0 C47 15.18 47 30.36 47 46 C31.49 46 15.98 46 0 46 C0 30.82 0 15.64 0 0 Z " fill="#000000" transform="translate(478,90)"/>
<path d="M0 0 C15.18 0 30.36 0 46 0 C46 15.18 46 30.36 46 46 C30.82 46 15.64 46 0 46 C0 30.82 0 15.64 0 0 Z " fill="#E80000" transform="translate(384,658)"/>
<path d="M0 0 C15.18 0 30.36 0 46 0 C46 15.18 46 30.36 46 46 C30.82 46 15.64 46 0 46 C0 30.82 0 15.64 0 0 Z " fill="#000000" transform="translate(289,611)"/>
<path d="M0 0 C0.33 0 0.66 0 1 0 C1 15.18 1 30.36 1 46 C16.51 46 32.02 46 48 46 C48 61.84 48 77.68 48 94 C63.51 94 79.02 94 95 94 C95 125.35 95 156.7 95 189 C110.51 189 126.02 189 142 189 C142 189.33 142 189.66 142 190 C126.16 190 110.32 190 94 190 C94 174.16 94 158.32 94 142 C78.49 142 62.98 142 47 142 C47 126.49 47 110.98 47 95 C31.49 95 15.98 95 0 95 C0 94.67 0 94.34 0 94 C15.51 94 31.02 94 47 94 C47 78.49 47 62.98 47 47 C31.49 47 15.98 47 0 47 C0 31.49 0 15.98 0 0 Z M48 95 C48 110.18 48 125.36 48 141 C63.18 141 78.36 141 94 141 C94 125.82 94 110.64 94 95 C78.82 95 63.64 95 48 95 Z " fill="#9C5757" transform="translate(241,516)"/>
</svg>
